<svg viewBox="0 0 233 83" fill="none" xmlns="http://www.w3.org/2000/svg">
  <path d="M0 56.6646C0 42.2207 11.709 30.5117 26.1528 30.5117H54.8472C69.291 30.5117 81 42.2207 81 56.6646C81 71.1084 69.291 82.8174 54.8472 82.8174H26.1528C11.709 82.8174 0 71.1084 0 56.6646Z" fill="#E4E4E4"/>
  <path d="M0 56.6646C0 42.2207 11.709 30.5117 26.1528 30.5117H54.8472C69.291 30.5117 81 42.2207 81 56.6646V56.6646C81 71.1084 69.291 82.8174 54.8472 82.8174H26.1528C11.709 82.8174 0 71.1084 0 56.6646V56.6646Z" fill="#E4E4E4"/>
  <rect x="24.3003" y="43.5881" width="8.1" height="26.1528" rx="4.05" fill="black"/>
  <rect x="48.6001" y="43.5881" width="8.1" height="26.1528" rx="4.05" fill="black"/>
  <rect width="8.25874" height="25.7022" rx="4.12937" transform="matrix(0.84938 0.527781 -0.472723 0.881211 58.7236 0)" fill="#E4E4E4"/>
  <rect width="8.25874" height="25.7022" rx="4.12937" transform="matrix(0.84938 -0.527781 0.472723 0.881211 14.1733 4.35889)" fill="#E4E4E4"/>
  <path d="M121.168 75.672C118.416 75.672 115.76 75.336 113.2 74.664C110.672 73.96 108.608 73.064 107.008 71.976L110.128 64.968C111.632 65.928 113.36 66.728 115.312 67.368C117.296 67.976 119.264 68.28 121.216 68.28C122.528 68.28 123.584 68.168 124.384 67.944C125.184 67.688 125.76 67.368 126.112 66.984C126.496 66.568 126.688 66.088 126.688 65.544C126.688 64.776 126.336 64.168 125.632 63.72C124.928 63.272 124.016 62.904 122.896 62.616C121.776 62.328 120.528 62.04 119.152 61.752C117.808 61.464 116.448 61.096 115.072 60.648C113.728 60.2 112.496 59.624 111.376 58.92C110.256 58.184 109.344 57.24 108.64 56.088C107.936 54.904 107.584 53.416 107.584 51.624C107.584 49.608 108.128 47.784 109.216 46.152C110.336 44.52 112 43.208 114.208 42.216C116.416 41.224 119.168 40.728 122.464 40.728C124.672 40.728 126.832 40.984 128.944 41.496C131.088 41.976 132.992 42.696 134.656 43.656L131.728 50.712C130.128 49.848 128.544 49.208 126.976 48.792C125.408 48.344 123.888 48.12 122.416 48.12C121.104 48.12 120.048 48.264 119.248 48.552C118.448 48.808 117.872 49.16 117.52 49.608C117.168 50.056 116.992 50.568 116.992 51.144C116.992 51.88 117.328 52.472 118 52.92C118.704 53.336 119.616 53.688 120.736 53.976C121.888 54.232 123.136 54.504 124.48 54.792C125.856 55.08 127.216 55.448 128.56 55.896C129.936 56.312 131.184 56.888 132.304 57.624C133.424 58.328 134.32 59.272 134.992 60.456C135.696 61.608 136.048 63.064 136.048 64.824C136.048 66.776 135.488 68.584 134.368 70.248C133.28 71.88 131.632 73.192 129.424 74.184C127.248 75.176 124.496 75.672 121.168 75.672ZM135.406 75L150.238 41.4H159.598L174.478 75H164.59L152.974 46.056H156.718L145.102 75H135.406ZM143.518 68.472L145.966 61.464H162.382L164.83 68.472H143.518ZM184.909 54.408H200.509V61.512H184.909V54.408ZM185.581 67.656H203.149V75H176.173V41.4H202.525V48.744H185.581V67.656ZM207.423 75V41.4H216.927V67.464H232.959V75H207.423Z" fill="#E4E4E4"/>
</svg>
