<svg width="111" height="113" viewBox="0 0 111 113" fill="none" xmlns="http://www.w3.org/2000/svg">
<path d="M0 77.316C0 57.6082 15.9764 41.6318 35.6842 41.6318H74.8361C94.5439 41.6318 110.52 57.6082 110.52 77.316C110.52 97.0239 94.544 113 74.8361 113H35.6842C15.9764 113 0 97.0239 0 77.316Z" fill="#E3F0F5"/>
<rect x="33.1562" y="59.4736" width="11.052" height="35.6842" rx="5.52602" fill="black"/>
<rect x="33.1562" y="59.4736" width="11.052" height="35.6842" rx="5.52602" fill="black"/>
<rect x="66.3123" y="59.4736" width="11.052" height="35.6842" rx="5.52602" fill="black"/>
<rect x="66.3123" y="59.4736" width="11.052" height="35.6842" rx="5.52602" fill="black"/>
<rect width="11.2686" height="35.0693" rx="5.63431" transform="matrix(0.84938 0.527781 -0.472723 0.881211 80.1252 0)" fill="#E3F0F5"/>
<rect width="11.2686" height="35.0693" rx="5.63431" transform="matrix(0.84938 0.527781 -0.472723 0.881211 80.1252 0)" fill="#E3F0F5"/>
<rect width="11.2686" height="35.0693" rx="5.63431" transform="matrix(0.84938 -0.527781 0.472723 0.881211 19.3391 5.94727)" fill="#E3F0F5"/>
<rect width="11.2686" height="35.0693" rx="5.63431" transform="matrix(0.84938 -0.527781 0.472723 0.881211 19.3391 5.94727)" fill="#E3F0F5"/>
</svg>
