<svg width="255" height="71" viewBox="0 0 255 71" fill="none" xmlns="http://www.w3.org/2000/svg">
<path d="M28.336 70.344C22.832 70.344 17.52 69.672 12.4 68.328C7.344 66.92 3.216 65.128 0.0160002 62.952L6.256 48.936C9.264 50.856 12.72 52.456 16.624 53.736C20.592 54.952 24.528 55.56 28.432 55.56C31.056 55.56 33.168 55.336 34.768 54.888C36.368 54.376 37.52 53.736 38.224 52.968C38.992 52.136 39.376 51.176 39.376 50.088C39.376 48.552 38.672 47.336 37.264 46.44C35.856 45.544 34.032 44.808 31.792 44.232C29.552 43.656 27.056 43.08 24.304 42.504C21.616 41.928 18.896 41.192 16.144 40.296C13.456 39.4 10.992 38.248 8.752 36.84C6.512 35.368 4.688 33.48 3.28 31.176C1.872 28.808 1.168 25.832 1.168 22.248C1.168 18.216 2.256 14.568 4.432 11.304C6.672 8.04 10 5.416 14.416 3.432C18.832 1.448 24.336 0.455996 30.928 0.455996C35.344 0.455996 39.664 0.967997 43.888 1.992C48.176 2.952 51.984 4.392 55.312 6.31199L49.456 20.424C46.256 18.696 43.088 17.416 39.952 16.584C36.816 15.688 33.776 15.24 30.832 15.24C28.208 15.24 26.096 15.528 24.496 16.104C22.896 16.616 21.744 17.32 21.04 18.216C20.336 19.112 19.984 20.136 19.984 21.288C19.984 22.76 20.656 23.944 22 24.84C23.408 25.672 25.232 26.376 27.472 26.952C29.776 27.464 32.272 28.008 34.96 28.584C37.712 29.16 40.432 29.896 43.12 30.792C45.872 31.624 48.368 32.776 50.608 34.248C52.848 35.656 54.64 37.544 55.984 39.912C57.392 42.216 58.096 45.128 58.096 48.648C58.096 52.552 56.976 56.168 54.736 59.496C52.56 62.76 49.264 65.384 44.848 67.368C40.496 69.352 34.992 70.344 28.336 70.344ZM57.8122 69L87.4763 1.8H106.196L135.956 69H116.18L92.9483 11.112H100.436L77.2043 69H57.8122ZM74.0363 55.944L78.9323 41.928H111.764L116.66 55.944H74.0363ZM157.817 27.816H189.017V42.024H157.817V27.816ZM159.161 54.312H194.297V69H140.345V1.8H193.049V16.488H159.161V54.312ZM203.845 69V1.8H222.853V53.928H254.917V69H203.845Z" fill="#E4E4E4"/>
</svg>
